<?xml version="1.0" ?><svg width="32px" height="32px" viewBox="0 0 32 32" xmlns="http://www.w3.org/2000/svg"><title/><path d="M22,6H5L1,15v9H6a3,3,0,0,1,6,0h8.53A2.47,2.47,0,0,0,23,21.53V7A1,1,0,0,0,22,6Z" style="fill: #0bf"/><circle cx="9" cy="24" r="3" style="fill: none;stroke: #000;stroke-linecap: round;stroke-linejoin: round;stroke-width: 2px"/><circle cx="25" cy="24" r="3" style="fill: none;stroke: #000;stroke-linecap: round;stroke-linejoin: round;stroke-width: 2px"/><line style="fill: none;stroke: #000;stroke-linecap: round;stroke-linejoin: round;stroke-width: 2px" x1="21" x2="13" y1="24" y2="24"/><path d="M28.2,24H30a1,1,0,0,0,1-1V16l-.63-4.42A3,3,0,0,0,27.4,9H24" style="fill: none;stroke: #000;stroke-linecap: round;stroke-linejoin: round;stroke-width: 2px"/><path d="M5,24H1V15L5,6H22a1,1,0,0,1,1,1V18.4" style="fill: none;stroke: #000;stroke-linecap: round;stroke-linejoin: round;stroke-width: 2px"/><polyline points="26 10 26 16 30 16" style="fill: none;stroke: #000;stroke-linecap: round;stroke-linejoin: round;stroke-width: 2px"/><line style="fill: none;stroke: #000;stroke-linecap: round;stroke-linejoin: round;stroke-width: 2px" x1="11" x2="3" y1="6.7" y2="23.5"/><circle cx="14" cy="11" r="1" style="fill: none;stroke: #000;stroke-miterlimit: 10;stroke-width: 2px"/><line style="fill: none;stroke: #000;stroke-linecap: round;stroke-linejoin: round;stroke-width: 2px" x1="5" x2="12.88" y1="13" y2="11.37"/><line style="fill: none;stroke: #000;stroke-linecap: round;stroke-linejoin: round;stroke-width: 2px" x1="30" x2="29" y1="20" y2="20"/></svg>